<svg width="37" height="38" viewBox="0 0 37 38" fill="none" xmlns="http://www.w3.org/2000/svg">
<path d="M17.4015 0.500154C16.4953 0.488219 15.5674 1.17163 15.1489 2.25045C14.634 3.57811 15.0838 5.0025 16.153 5.43153C17.2222 5.86072 18.5064 5.13339 19.0214 3.80566C19.5364 2.47799 19.0866 1.05361 18.0173 0.624573C17.8213 0.545163 17.6125 0.502993 17.4015 0.500154ZM23.1335 1.74341C22.2923 1.74388 21.3895 2.21332 20.7732 3.05968C19.8338 4.34944 19.9143 6.02859 20.9528 6.8113C21.9914 7.59409 23.5937 7.18214 24.5329 5.89239C25.4723 4.60264 25.3917 2.92349 24.3532 2.14077C23.9963 1.87165 23.574 1.7431 23.1335 1.74341ZM28.2903 4.67098C27.4977 4.66107 26.6384 5.00351 25.9538 5.6778C24.7369 6.87659 24.5333 8.66886 25.4986 9.68293C26.4638 10.697 28.2331 10.5477 29.4501 9.34907C30.667 8.15012 30.8707 6.35793 29.9054 5.34385C29.483 4.9 28.9068 4.6787 28.2903 4.67098ZM16.2943 7.17208C14.5682 7.15024 12.8914 7.70977 11.425 9.04422C6.7446 13.3039 2.18525 19.4273 0.658354 29.2528C-1.12504 40.7298 12.7723 38.6566 11.3964 32.5264C9.63866 24.6956 14.0135 21.5189 19.678 22.8414C22.1961 23.4296 24.7804 22.4592 26.2727 19.6872C28.0672 16.3538 25.7031 11.3548 21.4513 8.79562C19.7942 7.79792 18.0205 7.19392 16.2943 7.17208ZM32.9536 9.51959C32.1469 9.52131 31.2931 9.73957 30.4926 10.1924C28.358 11.3999 27.4138 13.8204 28.3862 15.5992C29.3587 17.3779 31.8783 17.8403 34.0128 16.6328C36.1474 15.4253 37.0891 13.0047 36.1168 11.226C35.509 10.1142 34.298 9.51686 32.9536 9.51959Z" fill="#52FF00"/>
</svg>
